<?xml version="1.0" encoding="UTF-8"?>
<svg xmlns="http://www.w3.org/2000/svg" version="1.1" width="100" height="100" viewBox="0 0 100 100"><rect x="0" y="0" width="100" height="100" fill="#ffffff"/><g transform="scale(4)"><g transform="translate(0,0)"><path fill-rule="evenodd" d="M9 0L9 1L10 1L10 2L8 2L8 3L9 3L9 4L10 4L10 5L9 5L9 6L8 6L8 8L4 8L4 9L3 9L3 8L0 8L0 10L1 10L1 9L2 9L2 11L0 11L0 12L3 12L3 13L1 13L1 14L0 14L0 15L1 15L1 16L0 16L0 17L1 17L1 16L3 16L3 17L5 17L5 14L6 14L6 15L8 15L8 21L9 21L9 22L8 22L8 25L12 25L12 24L14 24L14 25L15 25L15 24L16 24L16 25L18 25L18 24L19 24L19 25L21 25L21 24L19 24L19 23L18 23L18 24L17 24L17 22L16 22L16 21L19 21L19 22L20 22L20 23L23 23L23 25L25 25L25 24L24 24L24 23L25 23L25 22L24 22L24 23L23 23L23 21L25 21L25 20L23 20L23 21L22 21L22 22L21 22L21 18L22 18L22 19L25 19L25 18L24 18L24 16L23 16L23 18L22 18L22 17L21 17L21 16L22 16L22 15L25 15L25 12L24 12L24 13L23 13L23 14L20 14L20 15L19 15L19 12L21 12L21 11L22 11L22 10L23 10L23 11L25 11L25 9L23 9L23 8L22 8L22 9L21 9L21 10L19 10L19 8L17 8L17 9L15 9L15 10L16 10L16 11L15 11L15 12L16 12L16 13L18 13L18 14L17 14L17 16L16 16L16 15L13 15L13 14L14 14L14 11L13 11L13 12L12 12L12 11L11 11L11 12L12 12L12 13L11 13L11 15L10 15L10 14L9 14L9 13L8 13L8 12L6 12L6 13L4 13L4 12L3 12L3 10L4 10L4 11L5 11L5 10L4 10L4 9L8 9L8 11L10 11L10 10L12 10L12 8L13 8L13 10L14 10L14 8L16 8L16 7L17 7L17 5L16 5L16 4L17 4L17 2L16 2L16 1L15 1L15 0L14 0L14 1L15 1L15 3L14 3L14 4L13 4L13 5L14 5L14 7L13 7L13 6L12 6L12 8L11 8L11 6L10 6L10 5L11 5L11 4L12 4L12 3L13 3L13 0L12 0L12 1L10 1L10 0ZM11 2L11 3L12 3L12 2ZM9 6L9 7L10 7L10 6ZM15 6L15 7L16 7L16 6ZM9 8L9 10L10 10L10 8ZM6 10L6 11L7 11L7 10ZM18 10L18 11L19 11L19 10ZM16 11L16 12L17 12L17 11ZM6 13L6 14L7 14L7 13ZM1 14L1 15L3 15L3 16L4 16L4 14ZM8 14L8 15L9 15L9 14ZM11 15L11 16L9 16L9 19L10 19L10 17L11 17L11 16L12 16L12 18L11 18L11 19L12 19L12 20L11 20L11 21L12 21L12 20L13 20L13 21L14 21L14 22L13 22L13 23L14 23L14 22L15 22L15 23L16 23L16 22L15 22L15 21L16 21L16 19L15 19L15 17L16 17L16 16L15 16L15 17L14 17L14 16L12 16L12 15ZM18 15L18 16L19 16L19 15ZM20 15L20 16L21 16L21 15ZM6 16L6 17L7 17L7 16ZM17 17L17 20L20 20L20 17ZM13 18L13 19L14 19L14 18ZM18 18L18 19L19 19L19 18ZM9 20L9 21L10 21L10 20ZM9 22L9 23L10 23L10 24L12 24L12 23L10 23L10 22ZM0 0L0 7L7 7L7 0ZM1 1L1 6L6 6L6 1ZM2 2L2 5L5 5L5 2ZM18 0L18 7L25 7L25 0ZM19 1L19 6L24 6L24 1ZM20 2L20 5L23 5L23 2ZM0 18L0 25L7 25L7 18ZM1 19L1 24L6 24L6 19ZM2 20L2 23L5 23L5 20Z" fill="#000000"/></g></g></svg>
